<svg width="629" height="399" viewBox="0 0 629 399" fill="none" xmlns="http://www.w3.org/2000/svg">
<path d="M503.992 306.484C485.749 306.484 469.451 302.228 455.1 293.714C440.749 284.957 429.438 273.039 421.168 257.958C413.141 242.633 409.127 225.242 409.127 205.782C409.127 186.566 413.141 169.418 421.168 154.337C429.195 139.256 440.262 127.459 454.37 118.945C468.722 110.188 485.019 105.81 503.262 105.81C514.694 105.81 525.275 107.756 535.005 111.648C544.735 115.54 553.126 121.742 560.18 130.256H561.64V93.0398C561.64 79.4183 561.397 67.8644 560.91 58.378C560.667 48.8915 560.18 42.5672 559.451 39.4051C558.234 34.0538 554.829 30.2836 549.235 28.0944C543.64 25.9052 534.518 24.8106 521.87 24.8106V13.8648L596.667 0V210.525C596.667 227.309 596.788 241.174 597.031 252.12C597.518 262.822 598.248 270.485 599.221 275.106C600.68 280.944 603.113 284.957 606.518 287.147C610.167 289.092 617.585 290.065 628.774 290.065V302.471L568.207 306.484V272.187H566.748C557.991 284.349 548.626 293.106 538.654 298.457C528.924 303.809 517.37 306.484 503.992 306.484ZM560.91 215.634V191.553C560.91 178.661 560.18 169.053 558.721 162.729C557.505 156.161 554.951 150.445 551.059 145.58C545.708 138.283 538.654 132.81 529.897 129.161C521.14 125.269 512.505 123.323 503.992 123.323C486.721 123.323 473.465 130.621 464.222 145.215C454.978 159.81 450.357 179.391 450.357 203.958C450.357 229.742 454.857 250.417 463.857 265.985C473.1 281.309 486.478 288.971 503.992 288.971C512.505 288.971 521.383 287.025 530.627 283.133C539.87 278.998 546.802 273.282 551.424 265.985C554.829 260.633 557.261 254.187 558.721 246.647C560.18 239.106 560.91 228.769 560.91 215.634Z" fill="currentColor"/>
<path d="M311.553 232.417V244.822C311.553 258.201 312.04 268.052 313.013 274.376C314.229 280.457 316.905 284.471 321.04 286.417C325.418 288.119 332.229 289.335 341.472 290.065V302.835H244.419V290.065C253.905 289.579 260.837 288.363 265.216 286.417C269.594 284.471 272.391 280.579 273.608 274.741C275.067 268.66 275.797 259.538 275.797 247.376V204.687C275.797 188.147 275.554 175.255 275.067 166.012C274.581 156.526 273.364 149.715 271.418 145.58C269.473 141.445 266.31 138.891 261.932 137.918C257.554 136.945 251.473 136.458 243.689 136.458V123.688L307.54 109.823L312.648 155.066H314.107C320.675 140.472 329.796 128.675 341.472 119.675C353.148 110.431 365.188 105.81 377.593 105.81C385.377 105.81 391.458 107.756 395.836 111.648C400.458 115.296 402.769 120.283 402.769 126.607C402.769 132.445 400.945 137.066 397.296 140.472C393.647 143.634 388.418 145.215 381.607 145.215C376.499 145.215 372.364 144.485 369.202 143.026C366.039 141.323 363.242 139.742 360.81 138.283C358.377 136.823 355.702 136.093 352.783 136.093C346.215 136.093 339.648 140.35 333.08 148.864C326.513 157.134 321.405 167.715 317.756 180.607C315.81 187.417 314.229 195.323 313.013 204.323C312.04 213.323 311.553 222.687 311.553 232.417Z" fill="currentColor"/>
<path d="M180.607 183.499L101.067 360.457C95.7155 372.619 88.5399 381.862 79.54 388.186C70.54 394.754 60.3239 398.038 48.8915 398.038C41.351 398.038 35.6349 396.578 31.743 393.659C27.8511 390.983 25.9052 386.727 25.9052 380.889C25.9052 374.808 27.9728 370.308 32.1079 367.389C36.4862 364.47 44.3916 362.159 55.8239 360.457C65.7968 358.754 73.3373 355.957 78.4454 352.065C83.7967 348.173 88.7831 341.727 93.4047 332.727L106.175 307.187L36.1214 155.039C31.9863 146.039 28.3376 139.35 25.1755 134.972C22.2566 130.35 18.9728 127.31 15.3242 125.85C11.6756 124.148 6.56752 123.053 0 122.567V109.796H96.6885V122.567C88.4183 122.567 82.2156 123.54 78.0805 125.485C74.1886 127.431 72.2427 130.472 72.2427 134.607C72.2427 137.769 73.2157 142.756 75.1616 149.566C77.1075 156.377 79.54 163.31 82.4589 170.364L122.594 267.417H124.418L157.62 185.323C161.999 174.62 165.283 166.472 167.472 160.877C169.661 155.039 171.12 150.539 171.85 147.377C172.58 144.215 172.945 141.296 172.945 138.621C172.945 132.296 171.12 128.04 167.472 125.85C164.066 123.661 157.377 122.567 147.404 122.567V109.796H227.674V122.567C223.052 122.567 219.039 123.296 215.634 124.756C212.471 125.972 209.309 128.648 206.147 132.783C202.985 136.675 199.336 142.756 195.201 151.026C191.309 159.053 186.445 169.877 180.607 183.499Z" fill="currentColor"/>
</svg>
